# xmcd
#
# Track frame offsets:
#	150
#	13281
#	30231
#	46122
#	62914
#	74772
#	88130
#	104917
#	120865
#	135491
#	149120
#	159363
#	176563
#	188329
#	200260
#	211574
#	225869
#	236452
#	248304
#	261819
#
# Disc length: 3694 seconds
#
# Revision: 1
# Processed by: cddbd v1.5.1PL0 Copyright (c) Steve Scherf et al.
# Submitted via: audiograbber 1.83.01
#
DISCID=060e6c14
DTITLE=Various Artist - Promo Only - Regional Latin 8/05
DYEAR=2005
DGENRE=Latin
TTITLE0=Bronco (El Gigante De America) - Por Ti (Contra Viento Y Marea)
TTITLE1=Alicia Villareal f David Bisbal - Tu Ausencia
TTITLE2=Jennifer Pena - No Hay Nadie Igual Como Tu
TTITLE3=Aracely Arambula - Sexy Aracely
TTITLE4=Dueto Voices De Rancho - Corrido De Los Perez
TTITLE5=El Cayote Y Su Banda Tierra Santa - Suspiros
TTITLE6=Don Francisco - Pobre Florecita
TTITLE7=Iman - Se Nos Fue El Amor
TTITLE8=Notable - Quiero Que Me Quieras
TTITLE9=Estuendo - Que Lastima
TTITLE10=Jessie Morales - No Puedo Ver Lo Negro
TTITLE11=Chuy Vega - La Ultima Vuelta
TTITLE12=Sabiduria Nortena - Mi Ultima Carta
TTITLE13=Ezequiel Pena - Amigo Mio
TTITLE14=El Tamborazo De Villa - La Ladrona
TTITLE15=Autentiko - Perdona Mi Silencio
TTITLE16=Martincillo Vizcarra - Llevatela Calmadon
TTITLE17=Zarrozo Musical - Donde Estas
TTITLE18=Capitan - Quiero Ser *WARNING*
TTITLE19=Las Nenas De Cana - No Rompas Mas Mi Corazon
EXTD=
EXTT0=
EXTT1=
EXTT2=
EXTT3=
EXTT4=
EXTT5=
EXTT6=
EXTT7=
EXTT8=
EXTT9=
EXTT10=
EXTT11=
EXTT12=
EXTT13=
EXTT14=
EXTT15=
EXTT16=
EXTT17=
EXTT18=
EXTT19=
PLAYORDER=
